<svg width="347" height="230" viewBox="0 0 347 230" fill="none" xmlns="http://www.w3.org/2000/svg">
<path d="M121.616 157.169H38.1866V224.527H121.616V157.169Z" fill="#3F3D56"/>
<path d="M82.5993 204.985H68.4868V224.112H82.5993V204.985Z" fill="#FF455B"/>
<path d="M242.817 113.927C240.112 119.666 217.309 112.246 217.309 112.246L173.779 98.541L162.985 91.7792L156.109 87.471L170.226 82.2893L170.646 82.4515L181.08 86.4718L221.461 106.517C221.461 106.517 249.873 98.9582 242.817 113.927Z" fill="#FFB9B9"/>
<path d="M133.602 54.8996C133.602 54.8996 128.156 57.0941 127.525 63.2429C126.894 69.3917 126.842 104.082 126.842 104.082C126.842 104.082 141.072 95.8757 148.724 95.7077C156.376 95.5398 174.151 82.6092 174.151 82.6092C174.151 82.6092 140.66 52.3088 133.602 54.8996Z" fill="#D0CDE1"/>
<path opacity="0.1" d="M133.602 54.8996C133.602 54.8996 128.156 57.0941 127.525 63.2429C126.894 69.3917 126.842 104.082 126.842 104.082C126.842 104.082 141.072 95.8757 148.724 95.7077C156.376 95.5398 174.151 82.6092 174.151 82.6092C174.151 82.6092 140.66 52.3088 133.602 54.8996Z" fill="white"/>
<path d="M250.417 106.015L250.208 105.586C250.145 105.456 243.904 92.3878 247.384 79.5031C250.863 66.6181 262.83 58.4837 262.95 58.4033L263.346 58.1382L263.554 58.567C263.617 58.6973 269.858 71.7655 266.378 84.6502C262.899 97.5352 250.933 105.67 250.812 105.75L250.417 106.015ZM263.011 59.3786C260.916 60.9054 251.224 68.4688 248.185 79.7199C245.144 90.98 249.71 102.399 250.752 104.775C252.847 103.248 262.539 95.6845 265.577 84.4333C268.618 73.1733 264.052 61.754 263.011 59.3786Z" fill="#3F3D56"/>
<path d="M234.327 84.5418C237.806 97.4254 249.723 105.404 249.723 105.404C249.723 105.404 255.999 92.4952 252.52 79.6117C249.041 66.7281 237.124 58.749 237.124 58.749C237.124 58.749 230.847 71.6583 234.327 84.5418Z" fill="#6C63FF"/>
<path d="M250.605 105.835L250.13 105.809C249.985 105.801 235.551 104.91 226.003 95.5992C216.455 86.2885 215.178 71.8589 215.166 71.7139L215.127 71.2393L215.602 71.2652C215.747 71.273 230.181 72.1642 239.729 81.4749C249.277 90.7859 250.554 105.215 250.566 105.36L250.605 105.835ZM216.046 72.1354C216.36 74.7114 218.245 86.8732 226.582 95.0031C234.92 103.134 247.106 104.694 249.685 104.939C249.372 102.362 247.487 90.2012 239.149 82.071C230.806 73.9342 218.624 72.3786 216.046 72.1354Z" fill="#3F3D56"/>
<path d="M260.865 81.773C251.318 91.0827 250.152 105.394 250.152 105.394C250.152 105.394 264.465 104.611 274.012 95.3013C283.559 85.9916 284.725 71.6804 284.725 71.6804C284.725 71.6804 270.412 72.4633 260.865 81.773Z" fill="#3F3D56"/>
<path d="M249.953 56.6234C253.392 56.6234 256.179 53.8311 256.179 50.3865C256.179 46.942 253.392 44.1497 249.953 44.1497C246.515 44.1497 243.727 46.942 243.727 50.3865C243.727 53.8311 246.515 56.6234 249.953 56.6234Z" fill="#FF455B"/>
<path d="M266.139 102.7H235.267C231.414 102.7 228.289 105.83 228.289 109.69V117.332C228.289 121.192 231.414 124.322 235.267 124.322H266.139C269.993 124.322 273.117 121.192 273.117 117.332V109.69C273.117 105.83 269.993 102.7 266.139 102.7Z" fill="white"/>
<path d="M145.447 54.1462C156.731 54.1462 165.879 44.9829 165.879 33.6794C165.879 22.3759 156.731 13.2126 145.447 13.2126C134.164 13.2126 125.016 22.3759 125.016 33.6794C125.016 44.9829 134.164 54.1462 145.447 54.1462Z" fill="#2F2E41"/>
<path d="M186.99 168.396L175.368 169.227C175.368 169.227 175.011 191.07 173.5 196.669L193.423 212.469L189.273 199.164L186.99 168.396Z" fill="#FFB9B9"/>
<path d="M194.551 212.923L194.551 212.923L194.551 212.923C193.725 212.63 193.839 212.469 193.839 212.469V211.638L173.532 195.313C173.335 196.044 173.117 196.525 172.877 196.669C172.133 197.117 171.068 198.581 170.008 200.275C168.774 202.261 167.983 204.49 167.691 206.81C167.398 209.13 167.61 211.486 168.312 213.717V213.717L167.481 227.854H170.802L171.632 214.964H175.783C175.783 214.964 182.839 224.112 184.914 227.438C186.99 230.764 196.121 231.596 205.253 225.359C212.969 220.089 199.051 214.522 194.551 212.923Z" fill="white"/>
<path d="M145.483 56.7554C152.818 56.7554 158.765 50.7984 158.765 43.4501C158.765 36.1018 152.818 30.1448 145.483 30.1448C138.147 30.1448 132.2 36.1018 132.2 43.4501C132.2 50.7984 138.147 56.7554 145.483 56.7554Z" fill="#FFB9B9"/>
<path d="M152.746 50.7267L145.69 74.4268L128.672 61.953C128.672 61.953 137.389 52.3898 137.389 49.8951C137.389 47.4003 152.746 50.7267 152.746 50.7267Z" fill="#FFB9B9"/>
<path d="M84.8822 119.124C84.8822 119.124 64.5437 143.656 84.052 158.624C92.6362 165.211 100.176 177.674 105.928 189.567C110.44 198.946 116.954 207.217 125.008 213.797C133.062 220.376 142.46 225.104 152.539 227.646H152.539C152.539 227.646 221.856 146.566 198.197 123.698C174.538 100.829 110.617 120.787 110.617 120.787L84.8822 119.124Z" fill="#2F2E41"/>
<path d="M142.465 98.4385C142.556 103.915 141.51 109.927 136.766 111.224C127.635 113.719 126.804 112.471 126.804 112.471C126.804 112.471 125.144 115.382 125.559 118.708C125.974 122.035 121.616 119.332 121.616 119.332C121.616 119.332 77.4109 124.945 79.0712 118.708C80.7315 112.471 96.5042 90.8503 96.5042 90.8503C96.5042 90.8503 122.239 54.6765 127.635 55.9239C127.817 55.9654 128.004 56.0153 128.199 56.0694C133.695 57.6744 143.021 64.7553 143.822 67.566C144.653 70.4766 141.332 88.7714 141.332 88.7714C142.008 91.9517 142.387 95.188 142.465 98.4385V98.4385Z" fill="#FAFAFC"/>
<path d="M148.176 13.5969C151.925 13.5969 154.963 10.5531 154.963 6.79845C154.963 3.04377 151.925 0 148.176 0C144.428 0 141.39 3.04377 141.39 6.79845C141.39 10.5531 144.428 13.5969 148.176 13.5969Z" fill="#2F2E41"/>
<path d="M155.813 11.0088C156.859 9.68956 157.379 8.0283 157.272 6.34703C157.165 4.66575 156.438 3.0842 155.233 1.90894C155.423 2.03118 155.608 2.16387 155.789 2.307C156.488 2.86178 157.072 3.54925 157.506 4.33008C157.94 5.11091 158.216 5.96979 158.318 6.85758C158.42 7.74536 158.347 8.64464 158.102 9.50395C157.857 10.3633 157.445 11.1658 156.89 11.8655C156.335 12.5653 155.648 13.1486 154.868 13.5821C154.088 14.0155 153.23 14.2907 152.343 14.3917C151.457 14.4928 150.559 14.4178 149.702 14.171C148.844 13.9243 148.044 13.5106 147.346 12.9536C147.166 12.8101 146.995 12.6594 146.834 12.5015C148.249 13.4114 149.951 13.7624 151.61 13.4866C153.269 13.2109 154.767 12.3278 155.813 11.0088V11.0088Z" fill="#2F2E41"/>
<path d="M149.182 24.1626C156.906 26.2649 162.175 31.6282 160.951 36.1418C160.403 38.1613 158.644 39.6645 156.179 40.5249L154.017 37.8379L153.919 41.0987C153.577 41.157 153.229 41.2091 152.872 41.2472L150.124 35.4517L148.558 41.2266C147.271 41.0888 145.997 40.8484 144.748 40.5076C137.024 38.4053 131.755 33.042 132.979 28.5285C134.203 24.0149 141.457 22.0602 149.182 24.1626Z" fill="#2F2E41"/>
<path d="M207.743 149.477C202.348 152.803 199.027 129.103 199.027 129.103L160.01 105.403L151.136 96.2599L145.483 90.4346L160.425 88.7715L160.795 89.0293L169.972 95.4241L204.423 124.53C204.423 124.53 213.139 146.151 207.743 149.477Z" fill="#FFB9B9"/>
<path opacity="0.1" d="M141.332 88.7716C142.008 91.9518 142.387 95.1881 142.465 98.4387C139.564 98.9668 136.945 99.158 135.106 98.7506C127.635 97.0874 111.862 101.661 111.862 101.661C111.862 101.661 120.163 67.982 122.239 62.1609C122.733 60.774 123.522 59.5112 124.551 58.4595C125.58 57.4078 126.825 56.5924 128.199 56.0696C133.695 57.6745 143.021 64.7555 143.822 67.5662C144.653 70.4767 141.332 88.7716 141.332 88.7716Z" fill="black"/>
<path opacity="0.1" d="M162.916 92.0978C162.916 92.0978 157.445 94.3348 151.136 96.2599L145.483 90.4346L160.425 88.7715L160.795 89.0293C162.131 90.9377 162.916 92.0978 162.916 92.0978Z" fill="black"/>
<path d="M131.37 53.4292C131.37 53.4292 125.559 54.2608 123.484 60.0818C121.408 65.9029 113.107 99.582 113.107 99.582C113.107 99.582 128.88 95.0083 136.351 96.6715C143.822 98.3346 164.161 90.0188 164.161 90.0188C164.161 90.0188 138.842 52.5976 131.37 53.4292Z" fill="white"/>
<path d="M287.992 158.752L290.213 152.82L310.938 140.957L325.001 137.991L287.992 158.752Z" fill="#3F3D56"/>
<path d="M211.754 158.752L209.534 152.82L188.809 140.957L174.745 137.991L211.754 158.752Z" fill="#3F3D56"/>
<path d="M289.473 160.235H210.274L203.612 129.094H296.134L289.473 160.235Z" fill="#3F3D56"/>
<path opacity="0.1" d="M289.473 160.235H210.274L203.612 129.094H296.134L289.473 160.235Z" fill="black"/>
<path d="M289.843 158.381H209.904V224.121H289.843V158.381Z" fill="#3F3D56"/>
<path d="M256.929 204.569H242.817V223.696H256.929V204.569Z" fill="#FF455B"/>
</svg>
