<svg width="347" height="256" viewBox="0 0 347 256" fill="none" xmlns="http://www.w3.org/2000/svg">
<g clip-path="url(#clip0)">
<path d="M41.4386 108.97C40.6777 108.97 39.9091 108.958 39.1547 108.934L39.1718 108.387C40.2551 108.421 41.3607 108.43 42.4491 108.415L42.4566 108.963C42.1178 108.968 41.7785 108.97 41.4386 108.97Z" fill="#3F3D56"/>
<path d="M45.7566 108.843L45.7244 108.296C46.8093 108.232 47.9082 108.142 48.9904 108.029L49.0477 108.574C47.9572 108.688 46.85 108.779 45.7566 108.843Z" fill="#3F3D56"/>
<path d="M35.8577 108.758C34.7637 108.674 33.6582 108.564 32.5716 108.431L32.6386 107.887C33.7168 108.019 34.8138 108.128 35.8995 108.211L35.8577 108.758Z" fill="#3F3D56"/>
<path d="M52.3228 108.155L52.2406 107.613C53.3185 107.45 54.4048 107.26 55.4683 107.049L55.5751 107.586C54.5033 107.799 53.409 107.99 52.3228 108.155Z" fill="#3F3D56"/>
<path d="M29.3044 107.955C28.2237 107.772 27.1328 107.561 26.062 107.329L26.1784 106.793C27.241 107.024 28.3234 107.233 29.396 107.414L29.3044 107.955Z" fill="#3F3D56"/>
<path d="M58.7985 106.869L58.6667 106.337C59.7248 106.076 60.7888 105.787 61.8293 105.478L61.9852 106.004C60.9367 106.315 59.8646 106.606 58.7985 106.869Z" fill="#3F3D56"/>
<path d="M22.8522 106.555C21.792 106.273 20.7252 105.963 19.6813 105.633L19.8465 105.111C20.8826 105.438 21.9412 105.746 22.9931 106.025L22.8522 106.555Z" fill="#3F3D56"/>
<path d="M65.1285 104.993L64.9485 104.475C65.9753 104.119 67.008 103.733 68.0184 103.329L68.222 103.838C67.204 104.245 66.1633 104.633 65.1285 104.993Z" fill="#3F3D56"/>
<path d="M16.5482 104.563C15.5186 104.185 14.4826 103.777 13.4692 103.351L13.6821 102.846C14.6877 103.269 15.7157 103.674 16.7375 104.049L16.5482 104.563Z" fill="#3F3D56"/>
<path d="M71.252 102.545L71.0249 102.046C72.011 101.598 73.0022 101.12 73.9708 100.625L74.2204 101.114C73.2443 101.612 72.2456 102.093 71.252 102.545Z" fill="#3F3D56"/>
<path d="M77.1203 99.5474L76.8487 99.0716C77.7944 98.5324 78.7384 97.9657 79.6541 97.3869L79.9471 97.8498C79.0244 98.4332 78.0734 99.0045 77.1203 99.5474Z" fill="#3F3D56"/>
<path d="M82.6937 96.0244L82.3799 95.5754C83.2703 94.9538 84.1589 94.3027 85.021 93.6407L85.3552 94.0753C84.4867 94.7424 83.5912 95.3982 82.6937 96.0244Z" fill="#3F3D56"/>
<path d="M87.9254 92.0069L87.5719 91.5879C88.4019 90.8882 89.2278 90.159 90.0272 89.4205L90.3995 89.8229C89.5942 90.5671 88.7618 91.3018 87.9254 92.0069Z" fill="#3F3D56"/>
<path d="M92.772 87.5278L92.3816 87.143C93.1467 86.3684 93.9035 85.5667 94.6307 84.7605L95.0383 85.1271C94.3055 85.9397 93.5431 86.7473 92.772 87.5278Z" fill="#3F3D56"/>
<path d="M97.1928 82.6254L96.7691 82.2776C97.4604 81.4371 98.1409 80.5699 98.7925 79.6994L99.2317 80.0275C98.5753 80.9046 97.8894 81.7788 97.1928 82.6254Z" fill="#3F3D56"/>
<path d="M101.15 77.3388L100.696 77.0311C101.308 76.1312 101.907 75.2051 102.476 74.2779L102.944 74.5648C102.37 75.4989 101.766 76.4322 101.15 77.3388Z" fill="#3F3D56"/>
<path d="M104.609 71.7107L104.129 71.4458C104.656 70.4937 105.167 69.516 105.65 68.5396L106.142 68.7825C105.656 69.7662 105.14 70.7514 104.609 71.7107Z" fill="#3F3D56"/>
<path d="M107.538 65.7864L107.036 65.5665C107.473 64.5692 107.893 63.5478 108.283 62.531L108.796 62.7274C108.402 63.7523 107.979 64.7814 107.538 65.7864Z" fill="#3F3D56"/>
<path d="M109.91 59.6127L109.39 59.4404C109.732 58.41 110.055 57.3567 110.349 56.3097L110.877 56.4579C110.581 57.513 110.255 58.5745 109.91 59.6127Z" fill="#3F3D56"/>
<path d="M111.698 53.2619L111.164 53.1378C111.409 52.0816 111.634 51.003 111.831 49.9324L112.37 50.0314C112.172 51.1105 111.945 52.1972 111.698 53.2619Z" fill="#3F3D56"/>
<path d="M112.893 46.7741L112.349 46.6997C112.497 45.6264 112.621 44.532 112.72 43.4467L113.266 43.496C113.167 44.5898 113.041 45.6925 112.893 46.7741Z" fill="#3F3D56"/>
<path d="M113.489 40.2047L112.941 40.1801C112.99 39.0942 113.015 37.9928 113.015 36.9067H113.564C113.564 38.0011 113.539 39.1108 113.489 40.2047Z" fill="#3F3D56"/>
<path d="M112.661 29.0387C112.551 27.9583 112.401 27.4316 112.242 26.3559L112.784 26.2759C112.944 27.3597 113.082 28.1871 113.192 29.2756L112.661 29.0387Z" fill="#3F3D56"/>
<path d="M111.688 23.1292C111.479 22.0602 111.243 20.9842 110.986 19.9309L111.519 19.8014C111.778 20.8627 112.016 21.9471 112.226 23.0241L111.688 23.1292Z" fill="#3F3D56"/>
<path d="M110.138 16.7683C109.832 15.7248 109.498 14.6752 109.145 13.6483L109.663 13.47C110.019 14.5049 110.356 15.5628 110.665 16.6141L110.138 16.7683Z" fill="#3F3D56"/>
<path d="M108.008 10.5772C107.608 9.56868 107.18 8.55654 106.734 7.56876L107.235 7.34372C107.683 8.33913 108.115 9.35902 108.518 10.3752L108.008 10.5772Z" fill="#3F3D56"/>
<path d="M105.324 4.62074C104.833 3.65329 104.313 2.68384 103.778 1.73967L104.255 1.46967C104.794 2.42119 105.318 3.398 105.813 4.37294L105.324 4.62074Z" fill="#3F3D56"/>
<path d="M95.5592 173.052C103.036 181.654 103.008 193.911 103.008 193.911C103.008 193.911 90.8577 192.221 83.3811 183.619C75.9046 175.018 75.9327 162.761 75.9327 162.761C75.9327 162.761 88.0827 164.451 95.5592 173.052Z" fill="#3F3D56"/>
<path d="M85.8865 104.515C89.1803 115.422 99.5714 121.936 99.5714 121.936C99.5714 121.936 104.622 110.767 101.328 99.86C98.0346 88.9531 87.6435 82.439 87.6435 82.439C87.6435 82.439 82.5927 93.6085 85.8865 104.515Z" fill="#6C63FF"/>
<path d="M90.1917 102.027C98.5881 109.735 99.9383 121.917 99.9383 121.917C99.9383 121.917 87.6753 121.602 79.2789 113.894C70.8824 106.186 69.5322 94.004 69.5322 94.004C69.5322 94.004 81.7953 94.3189 90.1917 102.027Z" fill="#3F3D56"/>
<path d="M116.696 134.154C107.557 140.967 104.97 152.948 104.97 152.948C104.97 152.948 117.202 153.884 126.341 147.071C135.48 140.259 138.067 128.278 138.067 128.278C138.067 128.278 125.835 127.342 116.696 134.154Z" fill="#3F3D56"/>
<path d="M122.838 224.538C122.838 224.538 122.757 224.643 122.596 224.832H90.5986C93.7618 222.702 97.3131 221.215 101.051 220.454C112.256 218.339 122.838 224.538 122.838 224.538Z" fill="#3F3D56"/>
<path d="M103.034 191.468C102.996 191.66 102.954 191.853 102.912 192.046C102.873 192.235 102.831 192.424 102.789 192.613C102.701 193.019 102.61 193.425 102.516 193.832C99.9897 204.909 95.4258 215.421 89.0563 224.832H87.7875C94.065 215.825 98.7933 205.196 101.489 193.625C101.566 193.289 101.643 192.953 101.717 192.613C101.818 192.161 101.913 191.709 102.007 191.258C102.179 190.431 102.34 189.6 102.491 188.764C105.982 169.548 104.528 147.591 98.0643 121.766C97.9732 121.402 97.8785 121.034 97.7874 120.667C97.7734 120.621 97.7629 120.579 97.7523 120.534L98.7688 120.275C98.8845 120.726 99.0001 121.178 99.1088 121.63L99.1719 121.871C105.877 148.816 107.139 171.597 103.034 191.468Z" fill="#3F3D56"/>
<path d="M71.7062 87.6453C77.202 87.6453 81.6573 83.1938 81.6573 77.7027C81.6573 72.2115 77.202 67.76 71.7062 67.76C66.2103 67.76 61.755 72.2115 61.755 77.7027C61.755 83.1938 66.2103 87.6453 71.7062 87.6453Z" fill="#FF455B"/>
<path d="M251.975 189.916C245.718 196.786 245.509 206.777 245.509 206.777C245.509 206.777 255.445 205.63 261.702 198.759C267.959 191.889 268.168 181.897 268.168 181.897C268.168 181.897 258.232 183.045 251.975 189.916Z" fill="#3F3D56"/>
<path d="M261.155 134.231C258.264 143.059 249.67 148.173 249.67 148.173C249.67 148.173 245.764 138.973 248.656 130.145C251.547 121.316 260.14 116.202 260.14 116.202C260.14 116.202 264.046 125.402 261.155 134.231Z" fill="#6C63FF"/>
<path d="M257.693 132.121C250.703 138.246 249.372 148.15 249.372 148.15C249.372 148.15 259.374 148.125 266.364 142C273.354 135.876 274.685 125.971 274.685 125.971C274.685 125.971 264.683 125.996 257.693 132.121Z" fill="#3F3D56"/>
<path d="M235.48 157.809C242.801 163.535 244.683 173.35 244.683 173.35C244.683 173.35 234.695 173.882 227.374 168.157C220.053 162.431 218.172 152.616 218.172 152.616C218.172 152.616 228.159 152.084 235.48 157.809Z" fill="#3F3D56"/>
<path d="M253.044 224.832H252.09C249.282 219.077 247.206 212.993 245.911 206.723C245.809 206.236 245.711 205.749 245.62 205.255C245.588 205.101 245.56 204.944 245.532 204.786C244.804 200.763 244.347 196.697 244.162 192.613C243.527 179.386 245.462 164.705 249.998 148.13C250.015 148.063 250.033 147.997 250.054 147.93C250.152 147.566 250.254 147.202 250.355 146.834L251.179 147.065C251.168 147.1 251.161 147.132 251.151 147.167C251.067 147.468 250.983 147.766 250.902 148.063C246.328 164.691 244.379 179.389 245.017 192.613C245.172 195.952 245.509 199.281 246.027 202.583C246.135 203.27 246.251 203.953 246.374 204.632C246.493 205.28 246.619 205.927 246.752 206.572C248.06 212.902 250.175 219.039 253.044 224.832V224.832Z" fill="#3F3D56"/>
<path d="M273.221 120.749C277.702 120.749 281.335 117.119 281.335 112.642C281.335 108.165 277.702 104.535 273.221 104.535C268.74 104.535 265.107 108.165 265.107 112.642C265.107 117.119 268.74 120.749 273.221 120.749Z" fill="#FF455B"/>
<path d="M185.663 185.378L185.431 192.613L184.408 224.832H154.629L151.604 192.613L150.111 176.693L142.21 150.644L193.563 140.383C193.563 140.383 197.513 155.383 199.09 166.432C200.671 177.484 185.663 185.378 185.663 185.378Z" fill="#2F2E41"/>
<path opacity="0.2" d="M185.663 185.378L185.431 192.613L184.408 224.832H154.629L151.604 192.613L150.111 176.693L142.21 150.644L193.563 140.383C193.563 140.383 197.513 155.383 199.09 166.432C200.671 177.484 185.663 185.378 185.663 185.378Z" fill="black"/>
<path d="M342.794 224.832H0V4.20245L55.499 39.9234H55.0293V192.613H292.672V192.571L342.794 224.832Z" fill="#6C63FF"/>
<path d="M4.20605 0L66.2353 39.9234H292.672V185.662L347 220.629V0H4.20605Z" fill="#3F3D56"/>
<path d="M196.667 8.5161H196.667C180.905 8.5161 168.128 22.6841 168.128 40.1613V62.3661H174.963L178.92 54.139L177.931 62.3661H221.864L225.461 54.887L224.562 62.3661H229.508V44.9313C229.508 24.8198 214.805 8.5161 196.667 8.5161Z" fill="#2F2E41"/>
<path d="M169.861 111.177L165.121 129.333L209.362 127.754L208.572 112.756C208.572 112.756 175.391 104.073 169.861 111.177Z" fill="#FFB9B9"/>
<path d="M127.199 183.798L141.42 215.372L154.85 198.796L143.79 176.694L127.199 183.798Z" fill="#FFB9B9"/>
<path d="M191.192 57.5014C201.227 57.5014 209.362 49.3731 209.362 39.3463C209.362 29.3195 201.227 21.1911 191.192 21.1911C181.156 21.1911 173.021 29.3195 173.021 39.3463C173.021 49.3731 181.156 57.5014 191.192 57.5014Z" fill="#FFB9B9"/>
<path d="M218.053 63.0269L209.694 69.989L208.572 70.9205L207.782 80.3927H176.971C176.971 80.3927 181.174 76.7538 185.077 72.9886C185.156 72.9018 185.243 72.807 185.338 72.7202C185.867 72.2071 186.341 71.7335 186.768 71.3072C186.997 71.0704 187.218 70.8494 187.415 70.6442C187.739 70.3047 188.055 69.9811 188.371 69.6575C188.376 69.6532 188.378 69.6477 188.379 69.6417C189.188 68.7962 189.947 67.9054 190.655 66.9737L190.662 66.9658C190.852 66.7146 191.029 66.4537 191.192 66.1843C193.562 62.2376 188.032 54.344 188.032 54.344L205.412 45.6611C206.021 54.2177 213.265 59.9326 216.504 62.0797C217.452 62.7033 218.053 63.0269 218.053 63.0269Z" fill="#FFB9B9"/>
<path d="M260.714 195.638C248.864 198.796 248.074 175.115 248.074 175.115L231.9 142.795C228.482 135.965 226.132 128.653 224.931 121.112L221.213 97.7584L220.083 99.1082V99.1161L218.053 100.127L205.712 80.3926L202.252 74.8672V68.5523L214.103 63.0269H218.843C218.843 63.0269 218.945 63.0111 219.127 62.9953C221.308 62.7664 235.497 61.8191 236.223 75.6565C236.509 81.0873 236.485 85.5866 236.337 89.1169C235.887 98.8837 236.814 108.665 239.092 118.174C239.929 121.602 240.841 124.58 241.754 126.175C244.914 131.701 255.974 175.115 255.974 175.115C255.974 175.115 272.565 192.481 260.714 195.638Z" fill="#FFB9B9"/>
<path d="M188.032 71.7097L185.037 77.1642L183.268 80.3926L174.601 96.1797C174.601 96.1797 172.144 98.1847 168.162 100.774C161.542 105.076 150.687 110.98 139.84 111.967C122.459 113.546 139.05 57.5014 139.05 57.5014C139.05 57.5014 144.58 35.3995 152.48 37.7675C160.381 40.1356 154.06 48.0291 148.53 63.0268C143 78.0246 147.74 94.601 147.74 94.601C147.74 94.601 164.331 84.3394 173.021 76.4459C177.548 72.3333 181.435 71.2204 184.113 71.1019H184.121C185.008 71.0532 185.898 71.1222 186.768 71.3072C187.203 71.3941 187.627 71.5291 188.032 71.7097V71.7097Z" fill="#FFB9B9"/>
<path d="M190.655 66.9736C190.623 67.0604 190.252 67.763 187.415 70.6441C188.573 69.4912 189.655 68.2652 190.655 66.9736Z" fill="#D0CDE1"/>
<path d="M220.818 98.1532L220.083 99.1161L208.572 119.071C208.572 119.071 193.562 113.546 182.501 111.967C171.757 110.435 166.977 118.582 166.709 119.047L169.861 106.441L168.162 100.774C167.965 100.111 167.736 99.3767 167.491 98.5478C165.121 90.6543 173.811 81.9714 173.811 81.9714L184.113 71.102H184.121C185.008 71.0533 185.898 71.1223 186.768 71.3072C186.341 71.7334 185.867 72.2071 185.338 72.7201C185.243 72.807 185.156 72.9017 185.077 72.9886C182.051 76.0749 183.623 76.9353 185.037 77.1642C185.505 77.2359 185.979 77.2597 186.452 77.2353C189.746 77.7089 196.959 74.8199 202.252 72.4044C205.855 70.7626 208.572 69.3417 208.572 69.3417L215.469 63.0269L216.504 62.0797C217.452 62.7032 218.053 63.0269 218.053 63.0269H218.843C218.843 63.0269 218.946 63.0111 219.127 62.9953L215.53 65.6623C213.739 66.9903 212.309 68.7448 211.369 70.766C210.43 72.7873 210.012 75.0112 210.152 77.2353V77.2353L220.818 98.1532Z" fill="white"/>
<path d="M177.761 120.65L166.211 125.156C166.211 125.156 103.498 100.916 94.0181 120.65C84.5377 140.384 127.199 187.745 127.199 187.745L146.16 179.062L138.26 155.381C138.26 155.381 184.082 194.06 203.042 172.747C222.003 151.435 209.362 121.299 209.362 121.299C209.362 121.299 197.512 111.967 177.761 120.65Z" fill="#2F2E41"/>
<path d="M144.58 206.689L137.47 212.215C137.47 212.215 143.79 237.474 141.42 241.421C139.05 245.368 134.31 256.419 143 255.629C151.69 254.84 161.171 241.421 161.961 236.685C162.751 231.949 168.281 217.74 168.281 217.74C168.281 217.74 177.761 195.638 170.651 194.849C163.541 194.06 152.216 193.531 152.216 193.531L144.58 206.689Z" fill="white"/>
<path d="M204.78 17.2333C201.915 13.5468 197.688 11.2118 192.97 11.2118H192.41C181.607 11.2118 172.849 20.9791 172.849 33.0276V33.0276H176.469L177.054 28.5817L177.911 33.0276H199.38L201.179 29.2663L200.729 33.0276H204.953C206.924 42.8071 204.092 52.5866 196.457 62.3661H203.652L207.249 54.8434L206.35 62.3661H220.065L222.763 45.0639C222.763 32.1061 215.228 21.1182 204.78 17.2333Z" fill="#2F2E41"/>
</g>
<defs>
<clipPath id="clip0">
<rect width="347" height="256" fill="white"/>
</clipPath>
</defs>
</svg>
