<svg width="128" height="128" viewBox="0 0 128 128" fill="none" xmlns="http://www.w3.org/2000/svg">
<path d="M8.387 28.005C13.0431 38.8344 20.9035 49.546 31.9029 54.163C33.1585 54.6861 34.5841 55.0785 36.049 55.4055C38.9786 51.0371 42.3399 47.4926 46.2767 44.5892C49.664 42.1042 53.2085 40.1554 56.8574 38.625C55.8111 37.8926 54.7126 37.2256 53.5615 36.624C48.9839 34.2305 44.0271 32.1248 39.2008 29.8622C43.7392 31.0916 48.9446 31.5493 53.2869 33.1319C55.9942 34.126 58.4923 35.4993 60.8203 37.1342C67.7654 34.7668 75.0242 33.6289 82.2698 32.7658C76.3975 23.0089 63.8677 15.1746 54.4247 11.6303C44.5632 7.92879 33.3938 7.47102 22.4206 6.33329C15.698 5.63997 8.38687 3.12895 3.03759 0.199266C1.82124 -0.46776 0.52643 0.64395 0.944956 1.99108C3.57395 10.4007 4.908 19.9222 8.387 28.005Z" fill="#2F2E41"/>
<path d="M124.332 26.7228C111.959 33.4454 97.7684 34.2694 83.8656 35.865C77.0778 36.6497 70.3551 37.6175 63.9594 39.5533C62.573 39.9717 61.1868 40.4426 59.8264 40.9658C55.785 42.5091 51.8875 44.5363 48.2123 47.2437C44.7595 49.7809 41.9345 52.7892 39.5541 56.0981C35.7612 61.3819 33.1193 67.4636 30.9482 73.7808C26.9852 85.2509 25.1673 97.4405 25.5204 109.565C25.6643 114.482 25.7427 119.596 26.9591 124.396C27.2337 125.456 27.4953 126.803 28.3193 127.587C29.3918 128.621 31.3144 127.561 30.8828 126.057C27.77 115.45 29.7057 103.051 34.0086 92.9153C38.9525 81.2619 48.5001 74.33 60.1665 70.1057C63.2662 68.9809 66.4314 68 69.6487 67.0714C69.7141 67.0453 69.7795 67.0453 69.8449 67.0453C70.4858 67.0453 70.7604 67.9869 70.0934 68.2878C66.3005 70.0012 62.5338 71.7276 58.95 73.5979C41.3981 82.7531 33.7338 104.072 40.3125 104.072C40.8489 104.072 41.4766 103.928 42.1959 103.627C52.3452 99.4288 64.4039 99.3897 75.5603 97.3232C79.4839 96.6039 83.303 95.6229 86.8867 94.1319C101.117 88.1941 111.292 76.58 117.347 62.6117C121.86 52.1878 123.612 39.8805 127.026 29.051C127.471 27.6646 126.49 26.4746 125.286 26.4746C124.986 26.4613 124.659 26.5399 124.332 26.7228Z" fill="#2F2E41"/>
</svg>
