<svg width="128" height="128" viewBox="0 0 128 128" fill="none" xmlns="http://www.w3.org/2000/svg">
<g clip-path="url(#clip0)">
<path d="M64 31.9404C46.3221 31.9404 31.9405 46.3248 31.9405 64.0028C31.9405 81.6807 46.3221 96.0651 64 96.0651C81.6751 96.0651 96.0595 81.6836 96.0595 64.0028C96.0595 46.322 81.6751 31.9404 64 31.9404Z" fill="#2F2E41"/>
<path d="M64 22.5162C60.5449 22.5162 57.7446 19.7159 57.7446 16.2636V6.25545C57.7446 2.80035 60.5449 0 64 0C67.4551 0 70.2555 2.80035 70.2555 6.25545V16.2636C70.2555 19.7159 67.4523 22.5162 64 22.5162Z" fill="#2F2E41"/>
<path d="M64 105.481C60.5449 105.481 57.7446 108.281 57.7446 111.736V121.742C57.7446 125.2 60.5449 128 64 128C67.4551 128 70.2555 125.2 70.2555 121.742V111.736C70.2555 108.281 67.4523 105.481 64 105.481Z" fill="#2F2E41"/>
<path d="M93.33 34.6673C90.8897 32.2241 90.8897 28.2645 93.33 25.8213L100.407 18.7439C102.848 16.3035 106.81 16.3035 109.254 18.7439C111.697 21.1871 111.697 25.1495 109.254 27.5899L102.176 34.6673C99.7357 37.1106 95.7761 37.1106 93.33 34.6673Z" fill="#2F2E41"/>
<path d="M34.6671 93.3355C32.2239 90.8895 28.2643 90.8895 25.8211 93.3355L18.7437 100.41C16.3033 102.85 16.3004 106.816 18.7437 109.256C21.1869 111.697 25.1493 111.697 27.5897 109.256L34.6671 102.176C37.1104 99.7355 37.1104 95.7731 34.6671 93.3355Z" fill="#2F2E41"/>
<path d="M105.481 64.0001C105.481 60.545 108.281 57.7446 111.736 57.7446H121.745C125.2 57.7446 128 60.545 128 64.0001C128 67.4552 125.2 70.2527 121.745 70.2527H111.736C108.281 70.2527 105.481 67.4552 105.481 64.0001Z" fill="#2F2E41"/>
<path d="M22.5162 64.0001C22.5162 60.545 19.7159 57.7446 16.2608 57.7446H6.25545C2.80035 57.7446 0 60.545 0 64.0001C0 67.4552 2.80035 70.2527 6.25545 70.2527H16.2636C19.7159 70.2527 22.5162 67.4552 22.5162 64.0001Z" fill="#2F2E41"/>
<path d="M93.33 93.3357C95.7733 90.8953 99.7357 90.8953 102.176 93.3357L109.254 100.413C111.697 102.851 111.697 106.816 109.254 109.256C106.81 111.697 102.851 111.697 100.407 109.256L93.33 102.179C90.8868 99.7357 90.8868 95.7761 93.33 93.3357Z" fill="#2F2E41"/>
<path d="M34.6671 34.6671C37.1104 32.2239 37.1104 28.2643 34.6671 25.8211L27.5897 18.7465C25.1465 16.3033 21.1869 16.3033 18.7437 18.7465C16.3004 21.1869 16.3004 25.1493 18.7437 27.5897L25.8211 34.6671C28.2643 37.1132 32.2239 37.1132 34.6671 34.6671Z" fill="#2F2E41"/>
</g>
<defs>
<clipPath id="clip0">
<rect width="128" height="128" fill="white"/>
</clipPath>
</defs>
</svg>
