<svg width="128" height="128" viewBox="0 0 128 128" fill="none" xmlns="http://www.w3.org/2000/svg">
<g clip-path="url(#clip0)">
<path d="M51.1568 2.21906C48.9506 0.302507 43.7118 -2.77811 42.8543 5.20068C39.7752 25.8365 17.6045 40.2582 17.6045 60.604C17.6045 77.7543 31.5077 91.6575 48.6584 91.6575C65.8087 91.6575 79.7119 77.7543 79.7119 60.604C79.7116 45.0434 73.466 21.5991 51.1568 2.21906ZM36.5125 77.0744C36.0316 77.718 35.2953 78.0586 34.5505 78.0586C34.0463 78.0586 33.5379 77.903 33.1009 77.5796C32.8278 77.3771 26.3921 72.5188 25.0049 63.3358C23.6181 54.1547 29.8353 45.5508 30.1008 45.1889C30.8998 44.0993 32.4315 43.8628 33.522 44.663C34.6106 45.462 34.8468 46.9911 34.0501 48.0814C33.9696 48.1924 28.7664 55.4643 29.8455 62.6049C30.9208 69.7249 35.9717 73.6134 36.0227 73.6519C37.0979 74.4643 37.3195 75.9957 36.5125 77.0744Z" fill="#2F2E41"/>
<path d="M36.023 73.6526C35.972 73.6141 30.9211 69.7256 29.8458 62.6056C28.7668 55.465 33.9699 48.1932 34.0504 48.0821C34.8471 46.9918 34.6109 45.4627 33.5223 44.6637C32.4318 43.8638 30.9001 44.1 30.1011 45.1896C29.8356 45.5515 23.6184 54.1554 25.0053 63.3365C26.3922 72.5194 32.8278 77.3778 33.1012 77.5803C33.5382 77.9037 34.0466 78.0593 34.5508 78.0593C35.2956 78.0593 36.0319 77.7191 36.5129 77.0751C37.3195 75.9964 37.0979 74.465 36.023 73.6526Z" fill="white"/>
<path d="M94.1001 76.959C92.8409 75.865 89.8513 74.107 89.3621 78.6607C87.605 90.437 74.9521 98.6672 74.9521 110.278C74.9521 120.065 82.8867 128 92.6744 128C102.462 128 110.395 120.065 110.395 110.278C110.395 101.398 106.831 88.0187 94.1001 76.959ZM85.7429 119.677C85.4685 120.045 85.0486 120.239 84.6231 120.239C84.3356 120.239 84.0453 120.15 83.7958 119.966C83.6398 119.85 79.9671 117.077 79.1758 111.837C78.3845 106.598 81.9324 101.687 82.0836 101.481C82.5397 100.859 83.4141 100.724 84.0361 101.181C84.6574 101.637 84.7924 102.51 84.3378 103.132C84.2914 103.195 81.3222 107.345 81.9381 111.42C82.5521 115.483 85.4338 117.703 85.4634 117.725C86.0768 118.188 86.2032 119.062 85.7429 119.677Z" fill="#2F2E41"/>
<path d="M85.4637 117.724C85.4341 117.702 82.5524 115.483 81.9384 111.42C81.3225 107.345 84.2917 103.195 84.3382 103.131C84.7927 102.509 84.6577 101.637 84.0364 101.181C83.4144 100.724 82.54 100.859 82.0839 101.481C81.9327 101.687 78.3848 106.598 79.1761 111.837C79.9671 117.077 83.6398 119.85 83.7961 119.966C84.0453 120.15 84.3356 120.239 84.6234 120.239C85.049 120.239 85.4685 120.045 85.7432 119.677C86.2031 119.062 86.0768 118.188 85.4637 117.724Z" fill="white"/>
</g>
<defs>
<clipPath id="clip0">
<rect width="128" height="128" fill="white"/>
</clipPath>
</defs>
</svg>
